<svg xmlns="http://www.w3.org/2000/svg" xmlns:xlink="http://www.w3.org/1999/xlink" width="150" zoomAndPan="magnify" viewBox="0 0 112.5 112.499997" height="150" preserveAspectRatio="xMidYMid meet" version="1.2"><defs><clipPath id="2a6991d5ca"><path d="M 0 0 L 112.003906 0 L 112.003906 112.003906 L 0 112.003906 Z M 0 0 "/></clipPath><clipPath id="f4b13491d5"><path d="M 14.933594 0 L 97.070312 0 C 101.027344 0 104.828125 1.574219 107.628906 4.375 C 110.429688 7.175781 112.003906 10.972656 112.003906 14.933594 L 112.003906 97.070312 C 112.003906 101.027344 110.429688 104.828125 107.628906 107.628906 C 104.828125 110.429688 101.027344 112.003906 97.070312 112.003906 L 14.933594 112.003906 C 10.972656 112.003906 7.175781 110.429688 4.375 107.628906 C 1.574219 104.828125 0 101.027344 0 97.070312 L 0 14.933594 C 0 10.972656 1.574219 7.175781 4.375 4.375 C 7.175781 1.574219 10.972656 0 14.933594 0 Z M 14.933594 0 "/></clipPath><clipPath id="80290a154e"><path d="M 18.527344 18.527344 L 93.195312 18.527344 L 93.195312 93.195312 L 18.527344 93.195312 Z M 18.527344 18.527344 "/></clipPath><clipPath id="96be20ff52"><path d="M 33.40625 18.527344 L 78.316406 18.527344 C 82.265625 18.527344 86.046875 20.097656 88.839844 22.886719 C 91.628906 25.675781 93.195312 29.460938 93.195312 33.40625 L 93.195312 78.316406 C 93.195312 82.265625 91.628906 86.046875 88.839844 88.839844 C 86.046875 91.628906 82.265625 93.195312 78.316406 93.195312 L 33.40625 93.195312 C 29.460938 93.195312 25.675781 91.628906 22.886719 88.839844 C 20.097656 86.046875 18.527344 82.265625 18.527344 78.316406 L 18.527344 33.40625 C 18.527344 29.460938 20.097656 25.675781 22.886719 22.886719 C 25.675781 20.097656 29.460938 18.527344 33.40625 18.527344 Z M 33.40625 18.527344 "/></clipPath><clipPath id="a401e07c7f"><path d="M 33.972656 33.972656 L 78.027344 33.972656 L 78.027344 78.027344 L 33.972656 78.027344 Z M 33.972656 33.972656 "/></clipPath><clipPath id="5d2f11559a"><path d="M 56 33.972656 C 43.835938 33.972656 33.972656 43.835938 33.972656 56 C 33.972656 68.167969 43.835938 78.027344 56 78.027344 C 68.167969 78.027344 78.027344 68.167969 78.027344 56 C 78.027344 43.835938 68.167969 33.972656 56 33.972656 Z M 56 33.972656 "/></clipPath><clipPath id="3a6f50c293"><path d="M 36.214844 43.679688 L 47.058594 43.679688 L 47.058594 65.75 L 36.214844 65.75 Z M 36.214844 43.679688 "/></clipPath><clipPath id="cba11fa427"><path d="M 41.636719 43.679688 C 44.628906 43.679688 47.058594 46.109375 47.058594 49.101562 L 47.058594 60.285156 C 47.058594 63.28125 44.628906 65.707031 41.636719 65.707031 C 38.640625 65.707031 36.214844 63.28125 36.214844 60.285156 L 36.214844 49.101562 C 36.214844 46.109375 38.640625 43.679688 41.636719 43.679688 Z M 41.636719 43.679688 "/></clipPath><clipPath id="d4cad882b1"><path d="M 36.214844 43.6875 L 47.414062 43.6875 L 47.414062 66 L 36.214844 66 Z M 36.214844 43.6875 "/></clipPath><clipPath id="1b2eb82eb8"><path d="M 41.632812 43.6875 C 44.625 43.6875 47.050781 46.113281 47.050781 49.105469 L 47.050781 60.285156 C 47.050781 63.277344 44.625 65.703125 41.632812 65.703125 C 38.640625 65.703125 36.214844 63.277344 36.214844 60.285156 L 36.214844 49.105469 C 36.214844 46.113281 38.640625 43.6875 41.632812 43.6875 Z M 41.632812 43.6875 "/></clipPath><clipPath id="4f178c08cd"><path d="M 64.976562 43.679688 L 75.820312 43.679688 L 75.820312 65.75 L 64.976562 65.75 Z M 64.976562 43.679688 "/></clipPath><clipPath id="b1a4b59410"><path d="M 70.398438 43.679688 C 73.394531 43.679688 75.820312 46.109375 75.820312 49.101562 L 75.820312 60.285156 C 75.820312 63.28125 73.394531 65.707031 70.398438 65.707031 C 67.40625 65.707031 64.976562 63.28125 64.976562 60.285156 L 64.976562 49.101562 C 64.976562 46.109375 67.40625 43.679688 70.398438 43.679688 Z M 70.398438 43.679688 "/></clipPath><clipPath id="8f2ad79a1e"><path d="M 64.976562 43.6875 L 76 43.6875 L 76 66 L 64.976562 66 Z M 64.976562 43.6875 "/></clipPath><clipPath id="239c884caf"><path d="M 70.398438 43.6875 C 73.390625 43.6875 75.816406 46.113281 75.816406 49.105469 L 75.816406 60.285156 C 75.816406 63.277344 73.390625 65.703125 70.398438 65.703125 C 67.402344 65.703125 64.976562 63.277344 64.976562 60.285156 L 64.976562 49.105469 C 64.976562 46.113281 67.402344 43.6875 70.398438 43.6875 Z M 70.398438 43.6875 "/></clipPath></defs><g id="dd56d6842c"><g clip-rule="nonzero" clip-path="url(#2a6991d5ca)"><g clip-rule="nonzero" clip-path="url(#f4b13491d5)"><path style=" stroke:none;fill-rule:nonzero;fill:#737373;fill-opacity:1;" d="M 0 0 L 112.003906 0 L 112.003906 112.003906 L 0 112.003906 Z M 0 0 "/><path style="fill:none;stroke-width:14;stroke-linecap:butt;stroke-linejoin:miter;stroke:#000000;stroke-opacity:1;stroke-miterlimit:4;" d="M 19.999953 -0.00000133333 L 130.002322 -0.00000133333 C 135.301813 -0.00000133333 140.392045 2.108286 144.143017 5.859258 C 147.89399 9.610231 150.002277 14.695231 150.002277 19.999954 L 150.002277 130.002322 C 150.002277 135.301813 147.89399 140.392045 144.143017 144.143018 C 140.392045 147.89399 135.301813 150.002277 130.002322 150.002277 L 19.999953 150.002277 C 14.69523 150.002277 9.61023 147.89399 5.859258 144.143018 C 2.108285 140.392045 -0.00000200889 135.301813 -0.00000200889 130.002322 L -0.00000200889 19.999954 C -0.00000200889 14.695231 2.108285 9.610231 5.859258 5.859258 C 9.61023 2.108286 14.69523 -0.00000133333 19.999953 -0.00000133333 Z M 19.999953 -0.00000133333 " transform="matrix(0.746681,0,0,0.746681,0.0000015,0.000000995575)"/></g></g><g clip-rule="nonzero" clip-path="url(#80290a154e)"><g clip-rule="nonzero" clip-path="url(#96be20ff52)"><path style="fill:none;stroke-width:14;stroke-linecap:butt;stroke-linejoin:miter;stroke:#545454;stroke-opacity:1;stroke-miterlimit:4;" d="M 19.996517 -0.00180881 L 80.359018 -0.00180881 C 85.667054 -0.00180881 90.749327 2.108805 94.50328 5.857507 C 98.251981 9.606209 100.357345 14.693733 100.357345 19.996518 L 100.357345 80.359019 C 100.357345 85.667054 98.251981 90.749328 94.50328 94.50328 C 90.749327 98.251982 85.667054 100.357345 80.359018 100.357345 L 19.996517 100.357345 C 14.693732 100.357345 9.606208 98.251982 5.857506 94.50328 C 2.108804 90.749328 -0.00180949 85.667054 -0.00180949 80.359019 L -0.00180949 19.996518 C -0.00180949 14.693733 2.108804 9.606209 5.857506 5.857507 C 9.606208 2.108805 14.693732 -0.00180881 19.996517 -0.00180881 Z M 19.996517 -0.00180881 " transform="matrix(0.744008,0,0,0.744008,18.52869,18.52869)"/></g></g><g clip-rule="nonzero" clip-path="url(#a401e07c7f)"><g clip-rule="nonzero" clip-path="url(#5d2f11559a)"><path style=" stroke:none;fill-rule:nonzero;fill:#b4b4b4;fill-opacity:1;" d="M 33.972656 33.972656 L 78.027344 33.972656 L 78.027344 78.027344 L 33.972656 78.027344 Z M 33.972656 33.972656 "/></g></g><g clip-rule="nonzero" clip-path="url(#3a6f50c293)"><g clip-rule="nonzero" clip-path="url(#cba11fa427)"><path style=" stroke:none;fill-rule:nonzero;fill:#000000;fill-opacity:1;" d="M 36.214844 43.679688 L 47.058594 43.679688 L 47.058594 65.707031 L 36.214844 65.707031 Z M 36.214844 43.679688 "/></g></g><g clip-rule="nonzero" clip-path="url(#d4cad882b1)"><g clip-rule="nonzero" clip-path="url(#1b2eb82eb8)"><path style="fill:none;stroke-width:14;stroke-linecap:butt;stroke-linejoin:miter;stroke:#000000;stroke-opacity:1;stroke-miterlimit:4;" d="M 7.257131 0.00234755 C 11.264447 0.00234755 14.513197 3.251098 14.513197 7.258413 L 14.513197 22.230914 C 14.513197 26.238229 11.264447 29.486979 7.257131 29.486979 C 3.249816 29.486979 0.00106612 26.238229 0.00106612 22.230914 L 0.00106612 7.258413 C 0.00106612 3.251098 3.249816 0.00234755 7.257131 0.00234755 Z M 7.257131 0.00234755 " transform="matrix(0.746681,0,0,0.746681,36.214048,43.685747)"/></g></g><g clip-rule="nonzero" clip-path="url(#4f178c08cd)"><g clip-rule="nonzero" clip-path="url(#b1a4b59410)"><path style=" stroke:none;fill-rule:nonzero;fill:#000000;fill-opacity:1;" d="M 64.976562 43.679688 L 75.820312 43.679688 L 75.820312 65.707031 L 64.976562 65.707031 Z M 64.976562 43.679688 "/></g></g><g clip-rule="nonzero" clip-path="url(#8f2ad79a1e)"><g clip-rule="nonzero" clip-path="url(#239c884caf)"><path style="fill:none;stroke-width:14;stroke-linecap:butt;stroke-linejoin:miter;stroke:#000000;stroke-opacity:1;stroke-miterlimit:4;" d="M 7.259703 0.00234755 C 11.267018 0.00234755 14.515768 3.251098 14.515768 7.258413 L 14.515768 22.230914 C 14.515768 26.238229 11.267018 29.486979 7.259703 29.486979 C 3.247156 29.486979 -0.0015939 26.238229 -0.0015939 22.230914 L -0.0015939 7.258413 C -0.0015939 3.251098 3.247156 0.00234755 7.259703 0.00234755 Z M 7.259703 0.00234755 " transform="matrix(0.746681,0,0,0.746681,64.977753,43.685747)"/></g></g></g></svg>