<svg xmlns="http://www.w3.org/2000/svg" xmlns:xlink="http://www.w3.org/1999/xlink" width="71" zoomAndPan="magnify" viewBox="0 0 53.25 58.499999" height="78" preserveAspectRatio="xMidYMid meet" version="1.2"><defs><clipPath id="f4292b24d3"><path d="M 0 0.160156 L 52.511719 0.160156 L 52.511719 52 L 0 52 Z M 0 0.160156 "/></clipPath><filter x="0%" y="0%" width="100%" filterUnits="objectBoundingBox" id="12a6d2e598" height="100%"><feColorMatrix values="0 0 0 0 1 0 0 0 0 1 0 0 0 0 1 0 0 0 1 0" type="matrix" in="SourceGraphic"/></filter><clipPath id="3d0f76f086"><path d="M 0.207031 0.160156 L 51.75 0.160156 L 51.75 51.703125 L 0.207031 51.703125 Z M 0.207031 0.160156 "/></clipPath><clipPath id="4818f21f06"><path d="M 7.078125 0.160156 L 44.875 0.160156 C 46.695312 0.160156 48.445312 0.882812 49.734375 2.171875 C 51.023438 3.460938 51.75 5.210938 51.75 7.03125 L 51.75 44.828125 C 51.75 46.652344 51.023438 48.398438 49.734375 49.6875 C 48.445312 50.976562 46.695312 51.703125 44.875 51.703125 L 7.078125 51.703125 C 5.253906 51.703125 3.507812 50.976562 2.21875 49.6875 C 0.929688 48.398438 0.207031 46.652344 0.207031 44.828125 L 0.207031 7.03125 C 0.207031 5.210938 0.929688 3.460938 2.21875 2.171875 C 3.507812 0.882812 5.253906 0.160156 7.078125 0.160156 Z M 7.078125 0.160156 "/></clipPath><clipPath id="ac23f5cc18"><path d="M 8.730469 8.6875 L 43.09375 8.6875 L 43.09375 43.046875 L 8.730469 43.046875 Z M 8.730469 8.6875 "/></clipPath><clipPath id="e342e79e21"><path d="M 15.578125 8.6875 L 36.246094 8.6875 C 38.0625 8.6875 39.804688 9.410156 41.089844 10.691406 C 42.371094 11.976562 43.09375 13.71875 43.09375 15.53125 L 43.09375 36.199219 C 43.09375 38.015625 42.371094 39.757812 41.089844 41.042969 C 39.804688 42.324219 38.0625 43.046875 36.246094 43.046875 L 15.578125 43.046875 C 13.761719 43.046875 12.019531 42.324219 10.738281 41.042969 C 9.453125 39.757812 8.730469 38.015625 8.730469 36.199219 L 8.730469 15.53125 C 8.730469 13.71875 9.453125 11.976562 10.738281 10.691406 C 12.019531 9.410156 13.761719 8.6875 15.578125 8.6875 Z M 15.578125 8.6875 "/></clipPath><clipPath id="992b4c5f34"><path d="M 15.839844 15.792969 L 36.113281 15.792969 L 36.113281 36.066406 L 15.839844 36.066406 Z M 15.839844 15.792969 "/></clipPath><clipPath id="4dc1bbe711"><path d="M 25.976562 15.792969 C 20.378906 15.792969 15.839844 20.332031 15.839844 25.929688 C 15.839844 31.53125 20.378906 36.066406 25.976562 36.066406 C 31.574219 36.066406 36.113281 31.53125 36.113281 25.929688 C 36.113281 20.332031 31.574219 15.792969 25.976562 15.792969 Z M 25.976562 15.792969 "/></clipPath><clipPath id="100a7f26ea"><path d="M 16.871094 20.261719 L 21.863281 20.261719 L 21.863281 30.417969 L 16.871094 30.417969 Z M 16.871094 20.261719 "/></clipPath><clipPath id="3198bbd3d4"><path d="M 19.367188 20.261719 C 20.742188 20.261719 21.863281 21.378906 21.863281 22.753906 L 21.863281 27.902344 C 21.863281 29.28125 20.742188 30.398438 19.367188 30.398438 C 17.988281 30.398438 16.871094 29.28125 16.871094 27.902344 L 16.871094 22.753906 C 16.871094 21.378906 17.988281 20.261719 19.367188 20.261719 Z M 19.367188 20.261719 "/></clipPath><clipPath id="bde9082d84"><path d="M 16.871094 20.265625 L 22 20.265625 L 22 30.53125 L 16.871094 30.53125 Z M 16.871094 20.265625 "/></clipPath><clipPath id="dca41687c5"><path d="M 19.363281 20.265625 C 20.742188 20.265625 21.859375 21.378906 21.859375 22.757812 L 21.859375 27.902344 C 21.859375 29.277344 20.742188 30.394531 19.363281 30.394531 C 17.988281 30.394531 16.871094 29.277344 16.871094 27.902344 L 16.871094 22.757812 C 16.871094 21.378906 17.988281 20.265625 19.363281 20.265625 Z M 19.363281 20.265625 "/></clipPath><clipPath id="5a79f84a06"><path d="M 30.105469 20.261719 L 35.097656 20.261719 L 35.097656 30.417969 L 30.105469 30.417969 Z M 30.105469 20.261719 "/></clipPath><clipPath id="c600e0aa85"><path d="M 32.601562 20.261719 C 33.980469 20.261719 35.097656 21.378906 35.097656 22.753906 L 35.097656 27.902344 C 35.097656 29.28125 33.980469 30.398438 32.601562 30.398438 C 31.226562 30.398438 30.105469 29.28125 30.105469 27.902344 L 30.105469 22.753906 C 30.105469 21.378906 31.226562 20.261719 32.601562 20.261719 Z M 32.601562 20.261719 "/></clipPath><clipPath id="75b09d71be"><path d="M 30.105469 20.265625 L 35.179688 20.265625 L 35.179688 30.53125 L 30.105469 30.53125 Z M 30.105469 20.265625 "/></clipPath><clipPath id="6791993382"><path d="M 32.601562 20.265625 C 33.980469 20.265625 35.09375 21.378906 35.09375 22.757812 L 35.09375 27.902344 C 35.09375 29.277344 33.980469 30.394531 32.601562 30.394531 C 31.222656 30.394531 30.105469 29.277344 30.105469 27.902344 L 30.105469 22.757812 C 30.105469 21.378906 31.222656 20.265625 32.601562 20.265625 Z M 32.601562 20.265625 "/></clipPath><clipPath id="09f1f98170"><rect x="0" width="53" y="0" height="52"/></clipPath></defs><g id="37587cf1f9"><g clip-rule="nonzero" clip-path="url(#f4292b24d3)"><g mask="url(#ad4aa22d86)" transform="matrix(1,0,0,1,0,-0.000000000000012934)"><g clip-path="url(#09f1f98170)"><g clip-rule="nonzero" clip-path="url(#3d0f76f086)"><g clip-rule="nonzero" clip-path="url(#4818f21f06)"><path style=" stroke:none;fill-rule:nonzero;fill:#737373;fill-opacity:1;" d="M 0.207031 0.160156 L 51.75 0.160156 L 51.75 51.703125 L 0.207031 51.703125 Z M 0.207031 0.160156 "/><path style="fill:none;stroke-width:14;stroke-linecap:butt;stroke-linejoin:miter;stroke:#000000;stroke-opacity:1;stroke-miterlimit:4;" d="M 20.000599 0.00126039 L 129.999456 0.00126039 C 135.297045 0.00126039 140.390005 2.10438 144.141517 5.855892 C 147.893028 9.607403 150.007516 14.700364 150.007516 19.997952 L 150.007516 129.996809 C 150.007516 135.305766 147.893028 140.387359 144.141517 144.13887 C 140.390005 147.890381 135.297045 150.004869 129.999456 150.004869 L 20.000599 150.004869 C 14.691642 150.004869 9.61005 147.890381 5.858538 144.13887 C 2.107027 140.387359 0.00390707 135.305766 0.00390707 129.996809 L 0.00390707 19.997952 C 0.00390707 14.700364 2.107027 9.607403 5.858538 5.855892 C 9.61005 2.10438 14.691642 0.00126039 20.000599 0.00126039 Z M 20.000599 0.00126039 " transform="matrix(0.343612,0,0,0.343612,0.205689,0.159723)"/></g></g><g clip-rule="nonzero" clip-path="url(#ac23f5cc18)"><g clip-rule="nonzero" clip-path="url(#e342e79e21)"><path style="fill:none;stroke-width:14;stroke-linecap:butt;stroke-linejoin:miter;stroke:#545454;stroke-opacity:1;stroke-miterlimit:4;" d="M 19.994679 0.00335409 L 80.360004 0.00335409 C 85.665215 0.00335409 90.753655 2.11403 94.507235 5.856201 C 98.249406 9.609781 100.360082 14.698221 100.360082 19.992023 L 100.360082 80.357348 C 100.360082 85.66256 98.249406 90.751 94.507235 94.50458 C 90.753655 98.246751 85.665215 100.357427 80.360004 100.357427 L 19.994679 100.357427 C 14.689467 100.357427 9.601027 98.246751 5.858856 94.50458 C 2.105276 90.751 -0.00539986 85.66256 -0.00539986 80.357348 L -0.00539986 19.992023 C -0.00539986 14.698221 2.105276 9.609781 5.858856 5.856201 C 9.601027 2.11403 14.689467 0.00335409 19.994679 0.00335409 Z M 19.994679 0.00335409 " transform="matrix(0.342381,0,0,0.342381,8.732318,8.686352)"/></g></g><g clip-rule="nonzero" clip-path="url(#992b4c5f34)"><g clip-rule="nonzero" clip-path="url(#4dc1bbe711)"><path style=" stroke:none;fill-rule:nonzero;fill:#b4b4b4;fill-opacity:1;" d="M 15.839844 15.792969 L 36.113281 15.792969 L 36.113281 36.066406 L 15.839844 36.066406 Z M 15.839844 15.792969 "/></g></g><g clip-rule="nonzero" clip-path="url(#100a7f26ea)"><g clip-rule="nonzero" clip-path="url(#3198bbd3d4)"><path style=" stroke:none;fill-rule:nonzero;fill:#000000;fill-opacity:1;" d="M 16.871094 20.261719 L 21.863281 20.261719 L 21.863281 30.398438 L 16.871094 30.398438 Z M 16.871094 20.261719 "/></g></g><g clip-rule="nonzero" clip-path="url(#bde9082d84)"><g clip-rule="nonzero" clip-path="url(#dca41687c5)"><path style="fill:none;stroke-width:14;stroke-linecap:butt;stroke-linejoin:miter;stroke:#000000;stroke-opacity:1;stroke-miterlimit:4;" d="M 7.253614 0.006894 C 11.266595 0.006894 14.517904 3.246836 14.517904 7.259816 L 14.517904 22.231756 C 14.517904 26.233368 11.266595 29.484678 7.253614 29.484678 C 3.252002 29.484678 0.000692612 26.233368 0.000692612 22.231756 L 0.000692612 7.259816 C 0.000692612 3.246836 3.252002 0.006894 7.253614 0.006894 Z M 7.253614 0.006894 " transform="matrix(0.343612,0,0,0.343612,16.870856,20.263256)"/></g></g><g clip-rule="nonzero" clip-path="url(#5a79f84a06)"><g clip-rule="nonzero" clip-path="url(#c600e0aa85)"><path style=" stroke:none;fill-rule:nonzero;fill:#000000;fill-opacity:1;" d="M 30.105469 20.261719 L 35.097656 20.261719 L 35.097656 30.398438 L 30.105469 30.398438 Z M 30.105469 20.261719 "/></g></g><g clip-rule="nonzero" clip-path="url(#75b09d71be)"><g clip-rule="nonzero" clip-path="url(#6791993382)"><path style="fill:none;stroke-width:14;stroke-linecap:butt;stroke-linejoin:miter;stroke:#000000;stroke-opacity:1;stroke-miterlimit:4;" d="M 7.258418 0.006894 C 11.271398 0.006894 14.51134 3.246836 14.51134 7.259816 L 14.51134 22.231756 C 14.51134 26.233368 11.271398 29.484678 7.258418 29.484678 C 3.245438 29.484678 -0.00587219 26.233368 -0.00587219 22.231756 L -0.00587219 7.259816 C -0.00587219 3.246836 3.245438 0.006894 7.258418 0.006894 Z M 7.258418 0.006894 " transform="matrix(0.343612,0,0,0.343612,30.107487,20.263256)"/></g></g></g><mask id="ad4aa22d86"><g filter="url(#12a6d2e598)"><rect x="0" width="53.25" y="0" height="58.499999" style="fill:#000000;fill-opacity:0.37;stroke:none;"/></g></mask></g></g><path style=" stroke:none;fill-rule:nonzero;fill:#ffffff;fill-opacity:0.25;" d="M 7.277344 16.976562 L 44.570312 16.976562 L 44.570312 34.304688 L 7.277344 34.304688 L 7.277344 16.976562 "/><g style="fill:#000000;fill-opacity:1;"><g transform="translate(7.278094, 30.936462)"><path style="stroke:none" d="M 3.390625 0.1875 C 2.890625 0.1875 2.4375 0.09375 2.03125 -0.09375 C 1.632812 -0.28125 1.316406 -0.550781 1.078125 -0.90625 C 0.847656 -1.269531 0.734375 -1.707031 0.734375 -2.21875 C 0.734375 -2.65625 0.816406 -3.015625 0.984375 -3.296875 C 1.160156 -3.578125 1.394531 -3.796875 1.6875 -3.953125 C 1.988281 -4.109375 2.316406 -4.226562 2.671875 -4.3125 C 3.023438 -4.394531 3.382812 -4.457031 3.75 -4.5 C 4.226562 -4.5625 4.613281 -4.609375 4.90625 -4.640625 C 5.195312 -4.671875 5.410156 -4.722656 5.546875 -4.796875 C 5.691406 -4.878906 5.765625 -5.019531 5.765625 -5.21875 L 5.765625 -5.25 C 5.765625 -5.75 5.625 -6.140625 5.34375 -6.421875 C 5.070312 -6.703125 4.664062 -6.84375 4.125 -6.84375 C 3.550781 -6.84375 3.097656 -6.710938 2.765625 -6.453125 C 2.441406 -6.203125 2.21875 -5.9375 2.09375 -5.65625 L 0.953125 -6.0625 C 1.148438 -6.539062 1.421875 -6.910156 1.765625 -7.171875 C 2.109375 -7.441406 2.476562 -7.628906 2.875 -7.734375 C 3.28125 -7.835938 3.679688 -7.890625 4.078125 -7.890625 C 4.328125 -7.890625 4.613281 -7.859375 4.9375 -7.796875 C 5.269531 -7.742188 5.585938 -7.625 5.890625 -7.4375 C 6.191406 -7.257812 6.441406 -6.984375 6.640625 -6.609375 C 6.847656 -6.242188 6.953125 -5.75 6.953125 -5.125 L 6.953125 0 L 5.765625 0 L 5.765625 -1.0625 L 5.703125 -1.0625 C 5.617188 -0.882812 5.484375 -0.695312 5.296875 -0.5 C 5.109375 -0.3125 4.851562 -0.148438 4.53125 -0.015625 C 4.21875 0.117188 3.835938 0.1875 3.390625 0.1875 Z M 3.5625 -0.890625 C 4.039062 -0.890625 4.441406 -0.984375 4.765625 -1.171875 C 5.097656 -1.359375 5.347656 -1.597656 5.515625 -1.890625 C 5.679688 -2.179688 5.765625 -2.488281 5.765625 -2.8125 L 5.765625 -3.921875 C 5.710938 -3.859375 5.597656 -3.800781 5.421875 -3.75 C 5.253906 -3.695312 5.0625 -3.648438 4.84375 -3.609375 C 4.625 -3.578125 4.410156 -3.550781 4.203125 -3.53125 C 3.992188 -3.507812 3.820312 -3.488281 3.6875 -3.46875 C 3.375 -3.425781 3.082031 -3.359375 2.8125 -3.265625 C 2.550781 -3.179688 2.335938 -3.050781 2.171875 -2.875 C 2.003906 -2.695312 1.921875 -2.457031 1.921875 -2.15625 C 1.921875 -1.738281 2.078125 -1.421875 2.390625 -1.203125 C 2.703125 -0.992188 3.09375 -0.890625 3.5625 -0.890625 Z M 3.5625 -0.890625 "/></g></g><g style="fill:#000000;fill-opacity:1;"><g transform="translate(15.332854, 30.936462)"><path style="stroke:none" d="M 6.609375 -6.046875 L 5.53125 -5.734375 C 5.425781 -6.003906 5.25 -6.257812 5 -6.5 C 4.757812 -6.738281 4.378906 -6.859375 3.859375 -6.859375 C 3.378906 -6.859375 2.976562 -6.75 2.65625 -6.53125 C 2.34375 -6.3125 2.1875 -6.035156 2.1875 -5.703125 C 2.1875 -5.398438 2.296875 -5.160156 2.515625 -4.984375 C 2.734375 -4.816406 3.070312 -4.675781 3.53125 -4.5625 L 4.6875 -4.28125 C 6.0625 -3.9375 6.75 -3.234375 6.75 -2.171875 C 6.75 -1.722656 6.617188 -1.320312 6.359375 -0.96875 C 6.109375 -0.625 5.753906 -0.347656 5.296875 -0.140625 C 4.847656 0.0546875 4.320312 0.15625 3.71875 0.15625 C 2.914062 0.15625 2.253906 -0.015625 1.734375 -0.359375 C 1.210938 -0.703125 0.882812 -1.203125 0.75 -1.859375 L 1.890625 -2.15625 C 2.097656 -1.3125 2.695312 -0.890625 3.6875 -0.890625 C 4.25 -0.890625 4.691406 -1.007812 5.015625 -1.25 C 5.347656 -1.488281 5.515625 -1.773438 5.515625 -2.109375 C 5.515625 -2.660156 5.128906 -3.023438 4.359375 -3.203125 L 3.0625 -3.515625 C 2.351562 -3.679688 1.832031 -3.941406 1.5 -4.296875 C 1.164062 -4.648438 1 -5.097656 1 -5.640625 C 1 -6.078125 1.117188 -6.460938 1.359375 -6.796875 C 1.609375 -7.140625 1.945312 -7.40625 2.375 -7.59375 C 2.8125 -7.789062 3.304688 -7.890625 3.859375 -7.890625 C 4.628906 -7.890625 5.234375 -7.71875 5.671875 -7.375 C 6.109375 -7.039062 6.421875 -6.597656 6.609375 -6.046875 Z M 6.609375 -6.046875 "/></g></g><g style="fill:#000000;fill-opacity:1;"><g transform="translate(22.799233, 30.936462)"><path style="stroke:none" d="M 4.484375 -7.796875 L 4.484375 -6.78125 L 2.8125 -6.78125 L 2.8125 -2.234375 C 2.8125 -1.890625 2.863281 -1.632812 2.96875 -1.46875 C 3.070312 -1.300781 3.203125 -1.191406 3.359375 -1.140625 C 3.515625 -1.085938 3.679688 -1.0625 3.859375 -1.0625 C 3.984375 -1.0625 4.085938 -1.066406 4.171875 -1.078125 C 4.265625 -1.085938 4.332031 -1.097656 4.375 -1.109375 L 4.625 -0.046875 C 4.539062 -0.015625 4.425781 0.015625 4.28125 0.046875 C 4.132812 0.078125 3.953125 0.09375 3.734375 0.09375 C 3.390625 0.09375 3.054688 0.0234375 2.734375 -0.109375 C 2.410156 -0.253906 2.144531 -0.476562 1.9375 -0.78125 C 1.726562 -1.082031 1.625 -1.457031 1.625 -1.90625 L 1.625 -6.78125 L 0.453125 -6.78125 L 0.453125 -7.796875 L 1.625 -7.796875 L 1.625 -9.65625 L 2.8125 -9.65625 L 2.8125 -7.796875 Z M 4.484375 -7.796875 "/></g></g><g style="fill:#000000;fill-opacity:1;"><g transform="translate(27.993237, 30.936462)"><path style="stroke:none" d="M 1.09375 0 L 1.09375 -7.796875 L 2.25 -7.796875 L 2.25 -6.609375 L 2.328125 -6.609375 C 2.472656 -6.992188 2.726562 -7.304688 3.09375 -7.546875 C 3.46875 -7.785156 3.890625 -7.90625 4.359375 -7.90625 C 4.578125 -7.90625 4.765625 -7.878906 4.921875 -7.828125 C 5.085938 -7.785156 5.234375 -7.71875 5.359375 -7.625 L 4.953125 -6.609375 C 4.867188 -6.648438 4.769531 -6.679688 4.65625 -6.703125 C 4.539062 -6.734375 4.410156 -6.75 4.265625 -6.75 C 3.691406 -6.75 3.21875 -6.578125 2.84375 -6.234375 C 2.476562 -5.890625 2.296875 -5.453125 2.296875 -4.921875 L 2.296875 0 Z M 1.09375 0 "/></g></g><g style="fill:#000000;fill-opacity:1;"><g transform="translate(33.47129, 30.936462)"><path style="stroke:none" d="M 1.09375 0 L 1.09375 -7.796875 L 2.296875 -7.796875 L 2.296875 0 Z M 1.703125 -9.09375 C 1.472656 -9.09375 1.273438 -9.171875 1.109375 -9.328125 C 0.941406 -9.484375 0.859375 -9.675781 0.859375 -9.90625 C 0.859375 -10.125 0.941406 -10.3125 1.109375 -10.46875 C 1.273438 -10.625 1.472656 -10.703125 1.703125 -10.703125 C 1.929688 -10.703125 2.128906 -10.625 2.296875 -10.46875 C 2.472656 -10.3125 2.5625 -10.125 2.5625 -9.90625 C 2.5625 -9.675781 2.472656 -9.484375 2.296875 -9.328125 C 2.128906 -9.171875 1.929688 -9.09375 1.703125 -9.09375 Z M 1.703125 -9.09375 "/></g></g><g style="fill:#000000;fill-opacity:1;"><g transform="translate(36.859563, 30.936462)"><path style="stroke:none" d="M 1.984375 -7.796875 L 3.859375 -4.609375 L 5.71875 -7.796875 L 7.09375 -7.796875 L 4.578125 -3.890625 L 7.09375 0 L 5.71875 0 L 3.859375 -3.015625 L 1.984375 0 L 0.609375 0 L 3.078125 -3.890625 L 0.609375 -7.796875 Z M 1.984375 -7.796875 "/></g></g><g style="fill:#000000;fill-opacity:1;"><g transform="translate(7.9416, 55.15418)"><path style="stroke:none" d="M 1.171875 0.046875 C 0.984375 0.046875 0.816406 0 0.671875 -0.09375 C 0.523438 -0.1875 0.410156 -0.316406 0.328125 -0.484375 C 0.242188 -0.648438 0.203125 -0.84375 0.203125 -1.0625 C 0.203125 -1.28125 0.242188 -1.472656 0.328125 -1.640625 C 0.410156 -1.816406 0.523438 -1.945312 0.671875 -2.03125 C 0.816406 -2.125 0.984375 -2.171875 1.171875 -2.171875 C 1.367188 -2.171875 1.539062 -2.125 1.6875 -2.03125 C 1.832031 -1.945312 1.941406 -1.816406 2.015625 -1.640625 C 2.097656 -1.472656 2.140625 -1.28125 2.140625 -1.0625 C 2.140625 -0.84375 2.097656 -0.648438 2.015625 -0.484375 C 1.941406 -0.316406 1.832031 -0.1875 1.6875 -0.09375 C 1.539062 0 1.367188 0.046875 1.171875 0.046875 Z M 1.171875 -0.25 C 1.316406 -0.25 1.4375 -0.285156 1.53125 -0.359375 C 1.632812 -0.441406 1.707031 -0.539062 1.75 -0.65625 C 1.789062 -0.78125 1.8125 -0.914062 1.8125 -1.0625 C 1.8125 -1.207031 1.789062 -1.34375 1.75 -1.46875 C 1.707031 -1.59375 1.632812 -1.691406 1.53125 -1.765625 C 1.4375 -1.835938 1.316406 -1.875 1.171875 -1.875 C 1.023438 -1.875 0.90625 -1.835938 0.8125 -1.765625 C 0.71875 -1.691406 0.644531 -1.59375 0.59375 -1.46875 C 0.550781 -1.34375 0.53125 -1.207031 0.53125 -1.0625 C 0.53125 -0.914062 0.550781 -0.78125 0.59375 -0.65625 C 0.644531 -0.539062 0.71875 -0.441406 0.8125 -0.359375 C 0.90625 -0.285156 1.023438 -0.25 1.171875 -0.25 Z M 1.171875 -0.25 "/></g></g><g style="fill:#000000;fill-opacity:1;"><g transform="translate(10.294746, 55.15418)"><path style="stroke:none" d="M 0.296875 0.8125 L 0.296875 -2.140625 L 0.625 -2.140625 L 0.625 -1.8125 L 0.65625 -1.8125 C 0.6875 -1.84375 0.722656 -1.882812 0.765625 -1.9375 C 0.804688 -2 0.867188 -2.050781 0.953125 -2.09375 C 1.035156 -2.144531 1.144531 -2.171875 1.28125 -2.171875 C 1.457031 -2.171875 1.613281 -2.125 1.75 -2.03125 C 1.894531 -1.945312 2.003906 -1.820312 2.078125 -1.65625 C 2.160156 -1.488281 2.203125 -1.289062 2.203125 -1.0625 C 2.203125 -0.84375 2.160156 -0.648438 2.078125 -0.484375 C 2.003906 -0.316406 1.898438 -0.1875 1.765625 -0.09375 C 1.628906 0 1.46875 0.046875 1.28125 0.046875 C 1.144531 0.046875 1.035156 0.0234375 0.953125 -0.015625 C 0.867188 -0.0664062 0.804688 -0.117188 0.765625 -0.171875 C 0.722656 -0.234375 0.6875 -0.285156 0.65625 -0.328125 L 0.625 -0.328125 L 0.625 0.8125 Z M 0.625 -1.078125 C 0.625 -0.828125 0.675781 -0.625 0.78125 -0.46875 C 0.882812 -0.320312 1.035156 -0.25 1.234375 -0.25 C 1.378906 -0.25 1.5 -0.285156 1.59375 -0.359375 C 1.6875 -0.429688 1.753906 -0.53125 1.796875 -0.65625 C 1.847656 -0.78125 1.875 -0.921875 1.875 -1.078125 C 1.875 -1.222656 1.847656 -1.359375 1.796875 -1.484375 C 1.753906 -1.609375 1.6875 -1.703125 1.59375 -1.765625 C 1.5 -1.835938 1.378906 -1.875 1.234375 -1.875 C 1.035156 -1.875 0.882812 -1.800781 0.78125 -1.65625 C 0.675781 -1.507812 0.625 -1.316406 0.625 -1.078125 Z M 0.625 -1.078125 "/></g></g><g style="fill:#000000;fill-opacity:1;"><g transform="translate(12.698319, 55.15418)"><path style="stroke:none" d="M 1.203125 0.046875 C 0.992188 0.046875 0.8125 0 0.65625 -0.09375 C 0.507812 -0.1875 0.394531 -0.316406 0.3125 -0.484375 C 0.238281 -0.648438 0.203125 -0.84375 0.203125 -1.0625 C 0.203125 -1.28125 0.238281 -1.472656 0.3125 -1.640625 C 0.394531 -1.804688 0.507812 -1.9375 0.65625 -2.03125 C 0.800781 -2.125 0.972656 -2.171875 1.171875 -2.171875 C 1.285156 -2.171875 1.394531 -2.148438 1.5 -2.109375 C 1.601562 -2.078125 1.703125 -2.019531 1.796875 -1.9375 C 1.890625 -1.851562 1.960938 -1.742188 2.015625 -1.609375 C 2.066406 -1.472656 2.09375 -1.304688 2.09375 -1.109375 L 2.09375 -0.96875 L 0.53125 -0.96875 C 0.539062 -0.738281 0.601562 -0.5625 0.71875 -0.4375 C 0.84375 -0.3125 1.003906 -0.25 1.203125 -0.25 C 1.328125 -0.25 1.4375 -0.273438 1.53125 -0.328125 C 1.625 -0.390625 1.691406 -0.476562 1.734375 -0.59375 L 2.0625 -0.5 C 2.007812 -0.332031 1.90625 -0.195312 1.75 -0.09375 C 1.601562 0 1.421875 0.046875 1.203125 0.046875 Z M 0.53125 -1.25 L 1.75 -1.25 C 1.75 -1.425781 1.695312 -1.570312 1.59375 -1.6875 C 1.488281 -1.8125 1.347656 -1.875 1.171875 -1.875 C 1.046875 -1.875 0.9375 -1.84375 0.84375 -1.78125 C 0.75 -1.726562 0.675781 -1.648438 0.625 -1.546875 C 0.570312 -1.453125 0.539062 -1.351562 0.53125 -1.25 Z M 0.53125 -1.25 "/></g></g><g style="fill:#000000;fill-opacity:1;"><g transform="translate(14.99544, 55.15418)"><path style="stroke:none" d="M 0.625 -1.296875 L 0.625 0 L 0.296875 0 L 0.296875 -2.140625 L 0.625 -2.140625 L 0.625 -1.8125 L 0.65625 -1.8125 C 0.695312 -1.914062 0.769531 -2 0.875 -2.0625 C 0.976562 -2.132812 1.113281 -2.171875 1.28125 -2.171875 C 1.488281 -2.171875 1.660156 -2.101562 1.796875 -1.96875 C 1.929688 -1.84375 2 -1.640625 2 -1.359375 L 2 0 L 1.671875 0 L 1.671875 -1.34375 C 1.671875 -1.507812 1.625 -1.640625 1.53125 -1.734375 C 1.445312 -1.828125 1.332031 -1.875 1.1875 -1.875 C 1.019531 -1.875 0.882812 -1.820312 0.78125 -1.71875 C 0.675781 -1.625 0.625 -1.484375 0.625 -1.296875 Z M 0.625 -1.296875 "/></g></g><g style="fill:#000000;fill-opacity:1;"><g transform="translate(17.303767, 55.15418)"><path style="stroke:none" d=""/></g></g><g style="fill:#000000;fill-opacity:1;"><g transform="translate(18.413106, 55.15418)"><path style="stroke:none" d="M 1.828125 -1.671875 L 1.53125 -1.578125 C 1.5 -1.648438 1.445312 -1.71875 1.375 -1.78125 C 1.3125 -1.851562 1.207031 -1.890625 1.0625 -1.890625 C 0.925781 -1.890625 0.816406 -1.859375 0.734375 -1.796875 C 0.648438 -1.734375 0.609375 -1.660156 0.609375 -1.578125 C 0.609375 -1.492188 0.632812 -1.425781 0.6875 -1.375 C 0.75 -1.332031 0.84375 -1.296875 0.96875 -1.265625 L 1.296875 -1.1875 C 1.671875 -1.09375 1.859375 -0.894531 1.859375 -0.59375 C 1.859375 -0.46875 1.820312 -0.359375 1.75 -0.265625 C 1.6875 -0.171875 1.59375 -0.09375 1.46875 -0.03125 C 1.34375 0.0195312 1.195312 0.046875 1.03125 0.046875 C 0.800781 0.046875 0.613281 0 0.46875 -0.09375 C 0.332031 -0.1875 0.242188 -0.328125 0.203125 -0.515625 L 0.515625 -0.59375 C 0.578125 -0.363281 0.742188 -0.25 1.015625 -0.25 C 1.171875 -0.25 1.289062 -0.28125 1.375 -0.34375 C 1.46875 -0.40625 1.515625 -0.484375 1.515625 -0.578125 C 1.515625 -0.734375 1.410156 -0.835938 1.203125 -0.890625 L 0.84375 -0.96875 C 0.644531 -1.007812 0.5 -1.078125 0.40625 -1.171875 C 0.320312 -1.273438 0.28125 -1.40625 0.28125 -1.5625 C 0.28125 -1.675781 0.3125 -1.78125 0.375 -1.875 C 0.445312 -1.96875 0.539062 -2.039062 0.65625 -2.09375 C 0.78125 -2.144531 0.914062 -2.171875 1.0625 -2.171875 C 1.269531 -2.171875 1.4375 -2.125 1.5625 -2.03125 C 1.6875 -1.9375 1.773438 -1.816406 1.828125 -1.671875 Z M 1.828125 -1.671875 "/></g></g><g style="fill:#000000;fill-opacity:1;"><g transform="translate(20.474911, 55.15418)"><path style="stroke:none" d="M 1.171875 0.046875 C 0.984375 0.046875 0.816406 0 0.671875 -0.09375 C 0.523438 -0.1875 0.410156 -0.316406 0.328125 -0.484375 C 0.242188 -0.648438 0.203125 -0.84375 0.203125 -1.0625 C 0.203125 -1.28125 0.242188 -1.472656 0.328125 -1.640625 C 0.410156 -1.816406 0.523438 -1.945312 0.671875 -2.03125 C 0.816406 -2.125 0.984375 -2.171875 1.171875 -2.171875 C 1.367188 -2.171875 1.539062 -2.125 1.6875 -2.03125 C 1.832031 -1.945312 1.941406 -1.816406 2.015625 -1.640625 C 2.097656 -1.472656 2.140625 -1.28125 2.140625 -1.0625 C 2.140625 -0.84375 2.097656 -0.648438 2.015625 -0.484375 C 1.941406 -0.316406 1.832031 -0.1875 1.6875 -0.09375 C 1.539062 0 1.367188 0.046875 1.171875 0.046875 Z M 1.171875 -0.25 C 1.316406 -0.25 1.4375 -0.285156 1.53125 -0.359375 C 1.632812 -0.441406 1.707031 -0.539062 1.75 -0.65625 C 1.789062 -0.78125 1.8125 -0.914062 1.8125 -1.0625 C 1.8125 -1.207031 1.789062 -1.34375 1.75 -1.46875 C 1.707031 -1.59375 1.632812 -1.691406 1.53125 -1.765625 C 1.4375 -1.835938 1.316406 -1.875 1.171875 -1.875 C 1.023438 -1.875 0.90625 -1.835938 0.8125 -1.765625 C 0.71875 -1.691406 0.644531 -1.59375 0.59375 -1.46875 C 0.550781 -1.34375 0.53125 -1.207031 0.53125 -1.0625 C 0.53125 -0.914062 0.550781 -0.78125 0.59375 -0.65625 C 0.644531 -0.539062 0.71875 -0.441406 0.8125 -0.359375 C 0.90625 -0.285156 1.023438 -0.25 1.171875 -0.25 Z M 1.171875 -0.25 "/></g></g><g style="fill:#000000;fill-opacity:1;"><g transform="translate(22.828057, 55.15418)"><path style="stroke:none" d="M 1.65625 -0.875 L 1.65625 -2.140625 L 1.984375 -2.140625 L 1.984375 0 L 1.65625 0 L 1.65625 -0.359375 L 1.640625 -0.359375 C 1.585938 -0.253906 1.503906 -0.160156 1.390625 -0.078125 C 1.285156 -0.00390625 1.15625 0.03125 1 0.03125 C 0.789062 0.03125 0.617188 -0.0351562 0.484375 -0.171875 C 0.359375 -0.304688 0.296875 -0.507812 0.296875 -0.78125 L 0.296875 -2.140625 L 0.625 -2.140625 L 0.625 -0.8125 C 0.625 -0.65625 0.664062 -0.53125 0.75 -0.4375 C 0.84375 -0.34375 0.960938 -0.296875 1.109375 -0.296875 C 1.179688 -0.296875 1.257812 -0.316406 1.34375 -0.359375 C 1.4375 -0.398438 1.507812 -0.460938 1.5625 -0.546875 C 1.625 -0.628906 1.65625 -0.738281 1.65625 -0.875 Z M 1.65625 -0.875 "/></g></g><g style="fill:#000000;fill-opacity:1;"><g transform="translate(25.119576, 55.15418)"><path style="stroke:none" d="M 0.296875 0 L 0.296875 -2.140625 L 0.625 -2.140625 L 0.625 -1.828125 L 0.640625 -1.828125 C 0.679688 -1.929688 0.753906 -2.015625 0.859375 -2.078125 C 0.960938 -2.148438 1.078125 -2.1875 1.203125 -2.1875 C 1.265625 -2.1875 1.316406 -2.175781 1.359375 -2.15625 C 1.398438 -2.144531 1.441406 -2.128906 1.484375 -2.109375 L 1.359375 -1.828125 C 1.335938 -1.835938 1.3125 -1.84375 1.28125 -1.84375 C 1.25 -1.851562 1.210938 -1.859375 1.171875 -1.859375 C 1.015625 -1.859375 0.882812 -1.8125 0.78125 -1.71875 C 0.675781 -1.625 0.625 -1.503906 0.625 -1.359375 L 0.625 0 Z M 0.296875 0 "/></g></g><g style="fill:#000000;fill-opacity:1;"><g transform="translate(26.56508, 55.15418)"><path style="stroke:none" d="M 1.171875 0.046875 C 0.972656 0.046875 0.800781 0 0.65625 -0.09375 C 0.507812 -0.1875 0.394531 -0.316406 0.3125 -0.484375 C 0.238281 -0.648438 0.203125 -0.84375 0.203125 -1.0625 C 0.203125 -1.28125 0.238281 -1.472656 0.3125 -1.640625 C 0.394531 -1.804688 0.507812 -1.9375 0.65625 -2.03125 C 0.800781 -2.125 0.972656 -2.171875 1.171875 -2.171875 C 1.316406 -2.171875 1.453125 -2.144531 1.578125 -2.09375 C 1.703125 -2.039062 1.800781 -1.960938 1.875 -1.859375 C 1.945312 -1.753906 1.992188 -1.632812 2.015625 -1.5 L 1.6875 -1.5 C 1.664062 -1.601562 1.609375 -1.691406 1.515625 -1.765625 C 1.429688 -1.835938 1.316406 -1.875 1.171875 -1.875 C 0.984375 -1.875 0.828125 -1.800781 0.703125 -1.65625 C 0.585938 -1.507812 0.53125 -1.316406 0.53125 -1.078125 C 0.53125 -0.828125 0.585938 -0.625 0.703125 -0.46875 C 0.816406 -0.320312 0.972656 -0.25 1.171875 -0.25 C 1.304688 -0.25 1.414062 -0.28125 1.5 -0.34375 C 1.59375 -0.414062 1.65625 -0.507812 1.6875 -0.625 L 2.015625 -0.625 C 1.992188 -0.5 1.945312 -0.382812 1.875 -0.28125 C 1.800781 -0.1875 1.703125 -0.109375 1.578125 -0.046875 C 1.460938 0.015625 1.328125 0.046875 1.171875 0.046875 Z M 1.171875 0.046875 "/></g></g><g style="fill:#000000;fill-opacity:1;"><g transform="translate(28.766956, 55.15418)"><path style="stroke:none" d="M 1.203125 0.046875 C 0.992188 0.046875 0.8125 0 0.65625 -0.09375 C 0.507812 -0.1875 0.394531 -0.316406 0.3125 -0.484375 C 0.238281 -0.648438 0.203125 -0.84375 0.203125 -1.0625 C 0.203125 -1.28125 0.238281 -1.472656 0.3125 -1.640625 C 0.394531 -1.804688 0.507812 -1.9375 0.65625 -2.03125 C 0.800781 -2.125 0.972656 -2.171875 1.171875 -2.171875 C 1.285156 -2.171875 1.394531 -2.148438 1.5 -2.109375 C 1.601562 -2.078125 1.703125 -2.019531 1.796875 -1.9375 C 1.890625 -1.851562 1.960938 -1.742188 2.015625 -1.609375 C 2.066406 -1.472656 2.09375 -1.304688 2.09375 -1.109375 L 2.09375 -0.96875 L 0.53125 -0.96875 C 0.539062 -0.738281 0.601562 -0.5625 0.71875 -0.4375 C 0.84375 -0.3125 1.003906 -0.25 1.203125 -0.25 C 1.328125 -0.25 1.4375 -0.273438 1.53125 -0.328125 C 1.625 -0.390625 1.691406 -0.476562 1.734375 -0.59375 L 2.0625 -0.5 C 2.007812 -0.332031 1.90625 -0.195312 1.75 -0.09375 C 1.601562 0 1.421875 0.046875 1.203125 0.046875 Z M 0.53125 -1.25 L 1.75 -1.25 C 1.75 -1.425781 1.695312 -1.570312 1.59375 -1.6875 C 1.488281 -1.8125 1.347656 -1.875 1.171875 -1.875 C 1.046875 -1.875 0.9375 -1.84375 0.84375 -1.78125 C 0.75 -1.726562 0.675781 -1.648438 0.625 -1.546875 C 0.570312 -1.453125 0.539062 -1.351562 0.53125 -1.25 Z M 0.53125 -1.25 "/></g></g><g style="fill:#000000;fill-opacity:1;"><g transform="translate(31.064077, 55.15418)"><path style="stroke:none" d=""/></g></g><g style="fill:#000000;fill-opacity:1;"><g transform="translate(32.173416, 55.15418)"><path style="stroke:none" d="M 0.625 -2.859375 L 0.625 0 L 0.296875 0 L 0.296875 -2.859375 Z M 0.625 -2.859375 "/></g></g><g style="fill:#000000;fill-opacity:1;"><g transform="translate(33.10907, 55.15418)"><path style="stroke:none" d="M 0.9375 0.046875 C 0.800781 0.046875 0.675781 0.0195312 0.5625 -0.03125 C 0.445312 -0.0820312 0.359375 -0.15625 0.296875 -0.25 C 0.234375 -0.351562 0.203125 -0.472656 0.203125 -0.609375 C 0.203125 -0.734375 0.222656 -0.832031 0.265625 -0.90625 C 0.316406 -0.988281 0.382812 -1.050781 0.46875 -1.09375 C 0.550781 -1.132812 0.640625 -1.164062 0.734375 -1.1875 C 0.835938 -1.207031 0.9375 -1.222656 1.03125 -1.234375 C 1.164062 -1.253906 1.269531 -1.269531 1.34375 -1.28125 C 1.425781 -1.289062 1.488281 -1.304688 1.53125 -1.328125 C 1.570312 -1.347656 1.59375 -1.382812 1.59375 -1.4375 L 1.59375 -1.453125 C 1.59375 -1.585938 1.550781 -1.691406 1.46875 -1.765625 C 1.394531 -1.847656 1.285156 -1.890625 1.140625 -1.890625 C 0.984375 -1.890625 0.859375 -1.851562 0.765625 -1.78125 C 0.671875 -1.707031 0.609375 -1.632812 0.578125 -1.5625 L 0.265625 -1.671875 C 0.316406 -1.804688 0.390625 -1.910156 0.484375 -1.984375 C 0.578125 -2.054688 0.679688 -2.101562 0.796875 -2.125 C 0.910156 -2.15625 1.019531 -2.171875 1.125 -2.171875 C 1.195312 -2.171875 1.273438 -2.160156 1.359375 -2.140625 C 1.453125 -2.128906 1.539062 -2.097656 1.625 -2.046875 C 1.707031 -1.992188 1.773438 -1.914062 1.828125 -1.8125 C 1.890625 -1.71875 1.921875 -1.585938 1.921875 -1.421875 L 1.921875 0 L 1.59375 0 L 1.59375 -0.296875 L 1.578125 -0.296875 C 1.546875 -0.242188 1.503906 -0.191406 1.453125 -0.140625 C 1.398438 -0.0859375 1.332031 -0.0390625 1.25 0 C 1.164062 0.03125 1.0625 0.046875 0.9375 0.046875 Z M 0.984375 -0.25 C 1.117188 -0.25 1.226562 -0.273438 1.3125 -0.328125 C 1.40625 -0.378906 1.472656 -0.441406 1.515625 -0.515625 C 1.566406 -0.597656 1.59375 -0.6875 1.59375 -0.78125 L 1.59375 -1.078125 C 1.570312 -1.054688 1.535156 -1.039062 1.484375 -1.03125 C 1.441406 -1.019531 1.390625 -1.007812 1.328125 -1 C 1.273438 -0.988281 1.21875 -0.976562 1.15625 -0.96875 C 1.101562 -0.96875 1.054688 -0.960938 1.015625 -0.953125 C 0.929688 -0.941406 0.851562 -0.921875 0.78125 -0.890625 C 0.707031 -0.867188 0.644531 -0.832031 0.59375 -0.78125 C 0.550781 -0.738281 0.53125 -0.675781 0.53125 -0.59375 C 0.53125 -0.476562 0.570312 -0.390625 0.65625 -0.328125 C 0.738281 -0.273438 0.847656 -0.25 0.984375 -0.25 Z M 0.984375 -0.25 "/></g></g><g style="fill:#000000;fill-opacity:1;"><g transform="translate(35.333355, 55.15418)"><path style="stroke:none" d="M 0.296875 0.8125 L 0.296875 -2.140625 L 0.625 -2.140625 L 0.625 -1.8125 L 0.65625 -1.8125 C 0.6875 -1.84375 0.722656 -1.882812 0.765625 -1.9375 C 0.804688 -2 0.867188 -2.050781 0.953125 -2.09375 C 1.035156 -2.144531 1.144531 -2.171875 1.28125 -2.171875 C 1.457031 -2.171875 1.613281 -2.125 1.75 -2.03125 C 1.894531 -1.945312 2.003906 -1.820312 2.078125 -1.65625 C 2.160156 -1.488281 2.203125 -1.289062 2.203125 -1.0625 C 2.203125 -0.84375 2.160156 -0.648438 2.078125 -0.484375 C 2.003906 -0.316406 1.898438 -0.1875 1.765625 -0.09375 C 1.628906 0 1.46875 0.046875 1.28125 0.046875 C 1.144531 0.046875 1.035156 0.0234375 0.953125 -0.015625 C 0.867188 -0.0664062 0.804688 -0.117188 0.765625 -0.171875 C 0.722656 -0.234375 0.6875 -0.285156 0.65625 -0.328125 L 0.625 -0.328125 L 0.625 0.8125 Z M 0.625 -1.078125 C 0.625 -0.828125 0.675781 -0.625 0.78125 -0.46875 C 0.882812 -0.320312 1.035156 -0.25 1.234375 -0.25 C 1.378906 -0.25 1.5 -0.285156 1.59375 -0.359375 C 1.6875 -0.429688 1.753906 -0.53125 1.796875 -0.65625 C 1.847656 -0.78125 1.875 -0.921875 1.875 -1.078125 C 1.875 -1.222656 1.847656 -1.359375 1.796875 -1.484375 C 1.753906 -1.609375 1.6875 -1.703125 1.59375 -1.765625 C 1.5 -1.835938 1.378906 -1.875 1.234375 -1.875 C 1.035156 -1.875 0.882812 -1.800781 0.78125 -1.65625 C 0.675781 -1.507812 0.625 -1.316406 0.625 -1.078125 Z M 0.625 -1.078125 "/></g></g><g style="fill:#000000;fill-opacity:1;"><g transform="translate(37.736928, 55.15418)"><path style="stroke:none" d="M 1.234375 -2.140625 L 1.234375 -1.875 L 0.78125 -1.875 L 0.78125 -0.609375 C 0.78125 -0.515625 0.789062 -0.445312 0.8125 -0.40625 C 0.84375 -0.363281 0.878906 -0.332031 0.921875 -0.3125 C 0.960938 -0.300781 1.007812 -0.296875 1.0625 -0.296875 C 1.101562 -0.296875 1.132812 -0.296875 1.15625 -0.296875 C 1.175781 -0.296875 1.191406 -0.300781 1.203125 -0.3125 L 1.28125 -0.015625 C 1.25 -0.00390625 1.210938 0.00390625 1.171875 0.015625 C 1.140625 0.0234375 1.09375 0.03125 1.03125 0.03125 C 0.9375 0.03125 0.84375 0.0078125 0.75 -0.03125 C 0.664062 -0.0703125 0.59375 -0.132812 0.53125 -0.21875 C 0.476562 -0.300781 0.453125 -0.40625 0.453125 -0.53125 L 0.453125 -1.875 L 0.125 -1.875 L 0.125 -2.140625 L 0.453125 -2.140625 L 0.453125 -2.65625 L 0.78125 -2.65625 L 0.78125 -2.140625 Z M 1.234375 -2.140625 "/></g></g><g style="fill:#000000;fill-opacity:1;"><g transform="translate(39.148818, 55.15418)"><path style="stroke:none" d="M 1.171875 0.046875 C 0.984375 0.046875 0.816406 0 0.671875 -0.09375 C 0.523438 -0.1875 0.410156 -0.316406 0.328125 -0.484375 C 0.242188 -0.648438 0.203125 -0.84375 0.203125 -1.0625 C 0.203125 -1.28125 0.242188 -1.472656 0.328125 -1.640625 C 0.410156 -1.816406 0.523438 -1.945312 0.671875 -2.03125 C 0.816406 -2.125 0.984375 -2.171875 1.171875 -2.171875 C 1.367188 -2.171875 1.539062 -2.125 1.6875 -2.03125 C 1.832031 -1.945312 1.941406 -1.816406 2.015625 -1.640625 C 2.097656 -1.472656 2.140625 -1.28125 2.140625 -1.0625 C 2.140625 -0.84375 2.097656 -0.648438 2.015625 -0.484375 C 1.941406 -0.316406 1.832031 -0.1875 1.6875 -0.09375 C 1.539062 0 1.367188 0.046875 1.171875 0.046875 Z M 1.171875 -0.25 C 1.316406 -0.25 1.4375 -0.285156 1.53125 -0.359375 C 1.632812 -0.441406 1.707031 -0.539062 1.75 -0.65625 C 1.789062 -0.78125 1.8125 -0.914062 1.8125 -1.0625 C 1.8125 -1.207031 1.789062 -1.34375 1.75 -1.46875 C 1.707031 -1.59375 1.632812 -1.691406 1.53125 -1.765625 C 1.4375 -1.835938 1.316406 -1.875 1.171875 -1.875 C 1.023438 -1.875 0.90625 -1.835938 0.8125 -1.765625 C 0.71875 -1.691406 0.644531 -1.59375 0.59375 -1.46875 C 0.550781 -1.34375 0.53125 -1.207031 0.53125 -1.0625 C 0.53125 -0.914062 0.550781 -0.78125 0.59375 -0.65625 C 0.644531 -0.539062 0.71875 -0.441406 0.8125 -0.359375 C 0.90625 -0.285156 1.023438 -0.25 1.171875 -0.25 Z M 1.171875 -0.25 "/></g></g><g style="fill:#000000;fill-opacity:1;"><g transform="translate(41.501964, 55.15418)"><path style="stroke:none" d="M 0.296875 0.8125 L 0.296875 -2.140625 L 0.625 -2.140625 L 0.625 -1.8125 L 0.65625 -1.8125 C 0.6875 -1.84375 0.722656 -1.882812 0.765625 -1.9375 C 0.804688 -2 0.867188 -2.050781 0.953125 -2.09375 C 1.035156 -2.144531 1.144531 -2.171875 1.28125 -2.171875 C 1.457031 -2.171875 1.613281 -2.125 1.75 -2.03125 C 1.894531 -1.945312 2.003906 -1.820312 2.078125 -1.65625 C 2.160156 -1.488281 2.203125 -1.289062 2.203125 -1.0625 C 2.203125 -0.84375 2.160156 -0.648438 2.078125 -0.484375 C 2.003906 -0.316406 1.898438 -0.1875 1.765625 -0.09375 C 1.628906 0 1.46875 0.046875 1.28125 0.046875 C 1.144531 0.046875 1.035156 0.0234375 0.953125 -0.015625 C 0.867188 -0.0664062 0.804688 -0.117188 0.765625 -0.171875 C 0.722656 -0.234375 0.6875 -0.285156 0.65625 -0.328125 L 0.625 -0.328125 L 0.625 0.8125 Z M 0.625 -1.078125 C 0.625 -0.828125 0.675781 -0.625 0.78125 -0.46875 C 0.882812 -0.320312 1.035156 -0.25 1.234375 -0.25 C 1.378906 -0.25 1.5 -0.285156 1.59375 -0.359375 C 1.6875 -0.429688 1.753906 -0.53125 1.796875 -0.65625 C 1.847656 -0.78125 1.875 -0.921875 1.875 -1.078125 C 1.875 -1.222656 1.847656 -1.359375 1.796875 -1.484375 C 1.753906 -1.609375 1.6875 -1.703125 1.59375 -1.765625 C 1.5 -1.835938 1.378906 -1.875 1.234375 -1.875 C 1.035156 -1.875 0.882812 -1.800781 0.78125 -1.65625 C 0.675781 -1.507812 0.625 -1.316406 0.625 -1.078125 Z M 0.625 -1.078125 "/></g></g></g></svg>