<svg xmlns="http://www.w3.org/2000/svg" xmlns:xlink="http://www.w3.org/1999/xlink" width="103" zoomAndPan="magnify" viewBox="0 0 77.25 77.25" height="103" preserveAspectRatio="xMidYMid meet" version="1.2"><defs><clipPath id="1e53d1d617"><path d="M 0 0 L 76.320312 0 L 76.320312 76.320312 L 0 76.320312 Z M 0 0 "/></clipPath><clipPath id="06b0594fd2"><path d="M 10.398438 0 L 65.921875 0 C 68.679688 0 71.324219 1.09375 73.277344 3.046875 C 75.226562 4.996094 76.320312 7.640625 76.320312 10.398438 L 76.320312 65.921875 C 76.320312 68.679688 75.226562 71.324219 73.277344 73.277344 C 71.324219 75.226562 68.679688 76.320312 65.921875 76.320312 L 10.398438 76.320312 C 7.640625 76.320312 4.996094 75.226562 3.046875 73.277344 C 1.09375 71.324219 0 68.679688 0 65.921875 L 0 10.398438 C 0 7.640625 1.09375 4.996094 3.046875 3.046875 C 4.996094 1.09375 7.640625 0 10.398438 0 Z M 10.398438 0 "/></clipPath><clipPath id="5a4bf97b2f"><path d="M 0 0 L 76.507812 0 L 76.507812 76.507812 L 0 76.507812 Z M 0 0 "/></clipPath><clipPath id="87b769302f"><path d="M 10.398438 0 L 65.921875 0 C 68.679688 0 71.324219 1.09375 73.277344 3.046875 C 75.226562 4.996094 76.320312 7.640625 76.320312 10.398438 L 76.320312 65.921875 C 76.320312 68.679688 75.226562 71.324219 73.277344 73.277344 C 71.324219 75.226562 68.679688 76.320312 65.921875 76.320312 L 10.398438 76.320312 C 7.640625 76.320312 4.996094 75.226562 3.046875 73.277344 C 1.09375 71.324219 0 68.679688 0 65.921875 L 0 10.398438 C 0 7.640625 1.09375 4.996094 3.046875 3.046875 C 4.996094 1.09375 7.640625 0 10.398438 0 Z M 10.398438 0 "/></clipPath></defs><g id="22741d1ef8"><g clip-rule="nonzero" clip-path="url(#1e53d1d617)"><g clip-rule="nonzero" clip-path="url(#06b0594fd2)"><path style=" stroke:none;fill-rule:nonzero;fill:#ff3131;fill-opacity:1;" d="M 0 0 L 76.320312 0 L 76.320312 76.320312 L 0 76.320312 Z M 0 0 "/></g></g><g clip-rule="nonzero" clip-path="url(#5a4bf97b2f)"><g clip-rule="nonzero" clip-path="url(#87b769302f)"><path style=" stroke:none;fill-rule:nonzero;fill:#ff5757;fill-opacity:1;" d="M 25.253906 -3.714844 L 36.398438 -3.714844 L 36.398438 3.714844 L 25.253906 3.714844 Z M 40.109375 -3.714844 L 51.253906 -3.714844 L 51.253906 3.714844 L 40.109375 3.714844 Z M 54.964844 -3.714844 L 65.921875 -3.714844 L 66.144531 -3.710938 L 66.078125 3.714844 L 54.964844 3.714844 Z M 71.125 -2.71875 C 72.933594 -2.003906 74.527344 -0.957031 75.902344 0.417969 C 78.214844 2.734375 79.5625 5.515625 79.941406 8.765625 L 72.5625 9.625 C 72.382812 8.085938 71.746094 6.769531 70.648438 5.671875 C 69.996094 5.019531 69.242188 4.523438 68.386719 4.183594 Z M 80.035156 12.925781 L 80.035156 24.066406 L 72.609375 24.066406 L 72.609375 12.925781 Z M 80.035156 27.78125 L 80.035156 38.921875 L 72.609375 38.921875 L 72.609375 27.78125 Z M 80.035156 42.636719 L 80.035156 53.777344 L 72.609375 53.777344 L 72.609375 42.636719 Z M 80.035156 57.492188 L 80.035156 65.921875 C 80.035156 67.167969 79.875 68.390625 79.550781 69.59375 L 72.378906 67.660156 C 72.53125 67.09375 72.609375 66.511719 72.609375 65.921875 L 72.609375 57.492188 Z M 77.402344 74.132812 C 76.949219 74.761719 76.449219 75.351562 75.902344 75.902344 C 73.144531 78.65625 69.820312 80.035156 65.921875 80.035156 L 64.585938 80.035156 L 64.585938 72.609375 L 65.921875 72.609375 C 67.769531 72.609375 69.34375 71.953125 70.648438 70.648438 C 70.910156 70.390625 71.144531 70.109375 71.359375 69.8125 Z M 60.871094 80.035156 L 49.730469 80.035156 L 49.730469 72.609375 L 60.871094 72.609375 Z M 46.015625 80.035156 L 34.875 80.035156 L 34.875 72.609375 L 46.015625 72.609375 Z M 31.160156 80.035156 L 20.019531 80.035156 L 20.019531 72.609375 L 31.160156 72.609375 Z M 16.304688 80.035156 L 10.398438 80.035156 C 7.964844 80.035156 5.683594 79.445312 3.558594 78.265625 L 7.15625 71.769531 C 8.167969 72.328125 9.246094 72.609375 10.398438 72.609375 L 16.304688 72.609375 Z M -0.359375 75.054688 C -2.597656 72.421875 -3.714844 69.378906 -3.714844 65.921875 L -3.714844 62.058594 L 3.714844 62.058594 L 3.714844 65.921875 C 3.714844 67.558594 4.242188 69 5.300781 70.25 Z M -3.714844 58.347656 L -3.714844 47.203125 L 3.714844 47.203125 L 3.714844 58.347656 Z M -3.714844 43.492188 L -3.714844 32.347656 L 3.714844 32.347656 L 3.714844 43.492188 Z M -3.714844 28.632812 L -3.714844 17.492188 L 3.714844 17.492188 L 3.714844 28.632812 Z M -3.714844 13.777344 L -3.714844 10.398438 C -3.714844 6.691406 -2.449219 3.480469 0.0820312 0.769531 L 5.511719 5.839844 C 4.3125 7.121094 3.714844 8.640625 3.714844 10.398438 L 3.714844 13.777344 Z M 4.136719 -2.25 C 6.109375 -3.226562 8.199219 -3.714844 10.398438 -3.714844 L 21.539062 -3.714844 L 21.539062 3.714844 L 10.398438 3.714844 C 9.355469 3.714844 8.367188 3.945312 7.433594 4.40625 Z M 4.136719 -2.25 "/></g></g><path style=" stroke:none;fill-rule:nonzero;fill:#000000;fill-opacity:1;" d="M 60.417969 52.277344 C 65.804688 44.320312 65.789062 32.25 60.417969 24.292969 C 50.363281 8.308594 26.40625 8.316406 16.355469 24.292969 C 10.859375 32.277344 10.859375 44.375 16.308594 52.355469 C 26.363281 68.34375 50.316406 68.332031 60.371094 52.355469 C 60.390625 52.332031 60.40625 52.304688 60.417969 52.277344 Z M 14.890625 39.652344 L 22.710938 39.652344 C 22.792969 43.261719 23.34375 46.796875 24.367188 50.261719 L 18.164062 50.261719 C 16.199219 46.992188 15.109375 43.457031 14.890625 39.652344 Z M 18.136719 26.390625 L 24.34375 26.390625 C 23.320312 29.851562 22.765625 33.390625 22.683594 37 L 14.890625 37 C 15.101562 33.199219 16.183594 29.660156 18.136719 26.390625 Z M 61.789062 37 L 53.972656 37 C 53.890625 33.390625 53.335938 29.851562 52.3125 26.390625 L 58.519531 26.390625 C 60.480469 29.660156 61.570312 33.195312 61.789062 37 Z M 51.3125 37 L 43.5 37 C 43.5 34.347656 43.386719 30.394531 43.058594 26.390625 L 49.457031 26.390625 C 50.59375 29.835938 51.210938 33.375 51.3125 37 Z M 36.320312 50.261719 C 36.054688 47.21875 35.875 43.648438 35.851562 39.652344 L 40.832031 39.652344 C 40.832031 43.648438 40.628906 47.21875 40.363281 50.261719 Z M 40.085938 52.914062 C 39.589844 57.195312 38.933594 60.128906 38.3125 61.339844 C 37.71875 60.128906 37.0625 57.195312 36.542969 52.914062 Z M 35.851562 37 C 35.851562 33.003906 36.054688 29.429688 36.320312 26.390625 L 40.363281 26.390625 C 40.628906 29.429688 40.804688 33.003906 40.832031 37 Z M 36.59375 23.738281 C 37.089844 19.457031 37.746094 16.523438 38.367188 15.3125 C 38.960938 16.523438 39.617188 19.457031 40.140625 23.738281 Z M 42.800781 23.738281 C 42.558594 20.929688 42.015625 18.179688 41.179688 15.488281 C 44.050781 16.699219 46.59375 19.679688 48.421875 23.738281 Z M 35.503906 15.488281 C 34.675781 18.179688 34.140625 20.929688 33.910156 23.738281 L 28.261719 23.738281 C 30.085938 19.679688 32.632812 16.699219 35.503906 15.488281 Z M 33.625 26.390625 C 33.296875 30.394531 33.207031 34.347656 33.179688 37 L 25.371094 37 C 25.472656 33.375 26.089844 29.835938 27.222656 26.390625 Z M 25.371094 39.652344 L 33.179688 39.652344 C 33.179688 42.304688 33.296875 46.257812 33.625 50.261719 L 27.222656 50.261719 C 26.089844 46.816406 25.472656 43.277344 25.371094 39.652344 Z M 33.882812 52.914062 C 34.125 55.722656 34.664062 58.472656 35.503906 61.164062 C 32.632812 59.953125 30.085938 56.972656 28.261719 52.914062 Z M 41.179688 61.164062 C 42.007812 58.472656 42.539062 55.722656 42.773438 52.914062 L 48.394531 52.914062 C 46.59375 56.972656 44.050781 59.953125 41.179688 61.164062 Z M 43.058594 50.261719 C 43.386719 46.257812 43.472656 42.304688 43.5 39.652344 L 51.3125 39.652344 C 51.210938 43.277344 50.59375 46.816406 49.457031 50.261719 Z M 53.972656 39.652344 L 61.789062 39.652344 C 61.582031 43.453125 60.5 46.992188 58.546875 50.261719 L 52.339844 50.261719 C 53.355469 46.796875 53.898438 43.261719 53.972656 39.652344 Z M 56.703125 23.738281 L 51.382812 23.738281 C 50.378906 21.105469 48.949219 18.722656 47.101562 16.59375 C 50.925781 18.136719 54.128906 20.519531 56.703125 23.738281 Z M 29.574219 16.59375 C 27.722656 18.722656 26.296875 21.105469 25.289062 23.738281 L 19.972656 23.738281 C 22.546875 20.519531 25.746094 18.136719 29.574219 16.59375 Z M 19.980469 52.914062 L 25.300781 52.914062 C 26.304688 55.546875 27.730469 57.929688 29.582031 60.058594 C 25.753906 58.511719 22.554688 56.132812 19.980469 52.914062 Z M 47.109375 60.058594 C 48.960938 57.929688 50.386719 55.546875 51.390625 52.914062 L 56.710938 52.914062 C 54.136719 56.132812 50.933594 58.511719 47.109375 60.058594 Z M 47.109375 60.058594 "/></g></svg>